<svg width="28" height="26" viewBox="0 0 28 26" fill="none" xmlns="http://www.w3.org/2000/svg">
<path d="M27.0055 1.21376C26.9708 0.305675 25.9657 -0.254083 25.1534 0.115066L0.738233 11.6801C-0.165865 12.0755 -0.265427 13.4418 0.5833 13.9567L6.30556 17.698V23.9401C6.27208 25.0655 7.75907 25.6948 8.53831 24.8648L11.9894 21.4141L16.8195 24.5719C17.0349 24.7128 17.2844 24.7852 17.5356 24.7852C18.0727 24.7896 18.5815 24.4372 18.7627 23.9298L26.9408 1.74952C27.0021 1.57463 27.0305 1.39396 27.0055 1.21376ZM19.4495 5.71156L8.89497 16.2657L3.9681 13.0447L19.4495 5.71156ZM8.92148 20.7826V19.4082L9.75263 19.9516L8.92148 20.7826ZM16.8765 21.4838L11.1317 17.7281L22.4252 6.43494L16.8765 21.4838Z" fill="black"/>
</svg>
